<?xml version="1.0" encoding="UTF-8" standalone="no"?>
<!DOCTYPE svg PUBLIC "-//W3C//DTD SVG 1.1//EN"
 "http://www.w3.org/Graphics/SVG/1.1/DTD/svg11.dtd">
<!-- Generated by graphviz version 2.28.0 (20111207.0829)
 -->
<!-- Title: G Pages: 1 -->
<svg width="582pt" height="694pt"
 viewBox="0.00 0.00 582.00 694.00" xmlns="http://www.w3.org/2000/svg" xmlns:xlink="http://www.w3.org/1999/xlink">
<g id="graph1" class="graph" transform="scale(1 1) rotate(0) translate(4 690)">
<title>G</title>
<polygon fill="white" stroke="white" points="-4,5 -4,-690 579,-690 579,5 -4,5"/>
<g id="graph2" class="cluster"><title>cluster_Stampie</title>
<polyline fill="none" stroke="gray" points="20,-44 554,-44 "/>
<path fill="none" stroke="gray" d="M554,-44C560,-44 566,-50 566,-56"/>
<polyline fill="none" stroke="gray" points="566,-56 566,-666 "/>
<path fill="none" stroke="gray" d="M566,-666C566,-672 560,-678 554,-678"/>
<polyline fill="none" stroke="gray" points="554,-678 20,-678 "/>
<path fill="none" stroke="gray" d="M20,-678C14,-678 8,-672 8,-666"/>
<polyline fill="none" stroke="gray" points="8,-666 8,-56 "/>
<path fill="none" stroke="gray" d="M8,-56C8,-50 14,-44 20,-44"/>
<text text-anchor="middle" x="287" y="-664.1" font-family="Times,serif" font-size="11.00" fill="gray">Stampie</text>
</g>
<g id="graph3" class="cluster"><title>cluster_Stampie\Adapter</title>
<polyline fill="none" stroke="gray" points="228,-468 529,-468 "/>
<path fill="none" stroke="gray" d="M529,-468C535,-468 541,-474 541,-480"/>
<polyline fill="none" stroke="gray" points="541,-480 541,-637 "/>
<path fill="none" stroke="gray" d="M541,-637C541,-643 535,-649 529,-649"/>
<polyline fill="none" stroke="gray" points="529,-649 228,-649 "/>
<path fill="none" stroke="gray" d="M228,-649C222,-649 216,-643 216,-637"/>
<polyline fill="none" stroke="gray" points="216,-637 216,-480 "/>
<path fill="none" stroke="gray" d="M216,-480C216,-474 222,-468 228,-468"/>
<text text-anchor="middle" x="378.5" y="-635.1" font-family="Times,serif" font-size="11.00" fill="gray">Adapter</text>
</g>
<g id="graph4" class="cluster"><title>cluster_Stampie\Exception</title>
<polyline fill="none" stroke="gray" points="450,-98 546,-98 "/>
<path fill="none" stroke="gray" d="M546,-98C552,-98 558,-104 558,-110"/>
<polyline fill="none" stroke="gray" points="558,-110 558,-213 "/>
<path fill="none" stroke="gray" d="M558,-213C558,-219 552,-225 546,-225"/>
<polyline fill="none" stroke="gray" points="546,-225 450,-225 "/>
<path fill="none" stroke="gray" d="M450,-225C444,-225 438,-219 438,-213"/>
<polyline fill="none" stroke="gray" points="438,-213 438,-110 "/>
<path fill="none" stroke="gray" d="M438,-110C438,-104 444,-98 450,-98"/>
<text text-anchor="middle" x="498" y="-211.1" font-family="Times,serif" font-size="11.00" fill="gray">Exception</text>
</g>
<g id="graph5" class="cluster"><title>cluster_Stampie\Mailer</title>
<polyline fill="none" stroke="gray" points="453,-279 543,-279 "/>
<path fill="none" stroke="gray" d="M543,-279C549,-279 555,-285 555,-291"/>
<polyline fill="none" stroke="gray" points="555,-291 555,-448 "/>
<path fill="none" stroke="gray" d="M555,-448C555,-454 549,-460 543,-460"/>
<polyline fill="none" stroke="gray" points="543,-460 453,-460 "/>
<path fill="none" stroke="gray" d="M453,-460C447,-460 441,-454 441,-448"/>
<polyline fill="none" stroke="gray" points="441,-448 441,-291 "/>
<path fill="none" stroke="gray" d="M441,-291C441,-285 447,-279 453,-279"/>
<text text-anchor="middle" x="498" y="-446.1" font-family="Times,serif" font-size="11.00" fill="gray">Mailer</text>
</g>
<!-- \\Stampie\\Adapter\\AdapterInterface -->
<g id="node3" class="node"><title>\\Stampie\\Adapter\\AdapterInterface</title>
<a xlink:href="db_Stampie_Adapter_AdapterInterface.html" xlink:title="AdapterInterface" target="_parent">
<polygon fill="none" stroke="black" points="352.5,-593 227.5,-593 227.5,-557 352.5,-557 352.5,-593"/>
<text text-anchor="middle" x="290" y="-571.6" font-family="Courier New" font-size="11.00">AdapterInterface</text>
</a>
</g>
<!-- \\Stampie\\Adapter\\Buzz -->
<g id="node4" class="node"><title>\\Stampie\\Adapter\\Buzz</title>
<a xlink:href="db_Stampie_Adapter_Buzz.html" xlink:title="Buzz" target="_parent">
<polygon fill="none" stroke="black" points="525,-620 471,-620 471,-584 525,-584 525,-620"/>
<text text-anchor="middle" x="498" y="-598.6" font-family="Courier New" font-size="11.00">Buzz</text>
</a>
</g>
<!-- \\Stampie\\Adapter\\Buzz&#45;&gt;\\Stampie\\Adapter\\AdapterInterface -->
<g id="edge16" class="edge"><title>\\Stampie\\Adapter\\Buzz&#45;&gt;\\Stampie\\Adapter\\AdapterInterface</title>
<path fill="none" stroke="black" stroke-dasharray="1,5" d="M470.91,-598.58C443.894,-595.039 400.476,-589.349 363.062,-584.445"/>
<polygon fill="none" stroke="black" points="363.057,-580.914 352.687,-583.085 362.147,-587.855 363.057,-580.914"/>
</g>
<!-- \\Stampie\\Adapter\\Guzzle -->
<g id="node5" class="node"><title>\\Stampie\\Adapter\\Guzzle</title>
<a xlink:href="db_Stampie_Adapter_Guzzle.html" xlink:title="Guzzle" target="_parent">
<polygon fill="none" stroke="black" points="526.5,-566 469.5,-566 469.5,-530 526.5,-530 526.5,-566"/>
<text text-anchor="middle" x="498" y="-544.6" font-family="Courier New" font-size="11.00">Guzzle</text>
</a>
</g>
<!-- \\Stampie\\Adapter\\Guzzle&#45;&gt;\\Stampie\\Adapter\\AdapterInterface -->
<g id="edge18" class="edge"><title>\\Stampie\\Adapter\\Guzzle&#45;&gt;\\Stampie\\Adapter\\AdapterInterface</title>
<path fill="none" stroke="black" stroke-dasharray="1,5" d="M469.218,-551.641C442.014,-555.207 399.417,-560.79 362.689,-565.604"/>
<polygon fill="none" stroke="black" points="361.964,-562.169 352.504,-566.939 362.874,-569.109 361.964,-562.169"/>
</g>
<!-- \\Stampie\\Adapter\\Response -->
<g id="node6" class="node"><title>\\Stampie\\Adapter\\Response</title>
<a xlink:href="db_Stampie_Adapter_Response.html" xlink:title="Response" target="_parent">
<polygon fill="none" stroke="black" points="533,-512 463,-512 463,-476 533,-476 533,-512"/>
<text text-anchor="middle" x="498" y="-490.6" font-family="Courier New" font-size="11.00">Response</text>
</a>
</g>
<!-- \\Stampie\\Adapter\\ResponseInterface -->
<g id="node7" class="node"><title>\\Stampie\\Adapter\\ResponseInterface</title>
<a xlink:href="db_Stampie_Adapter_ResponseInterface.html" xlink:title="ResponseInterface" target="_parent">
<polygon fill="none" stroke="black" points="355.5,-512 224.5,-512 224.5,-476 355.5,-476 355.5,-512"/>
<text text-anchor="middle" x="290" y="-490.6" font-family="Courier New" font-size="11.00">ResponseInterface</text>
</a>
</g>
<!-- \\Stampie\\Adapter\\Response&#45;&gt;\\Stampie\\Adapter\\ResponseInterface -->
<g id="edge20" class="edge"><title>\\Stampie\\Adapter\\Response&#45;&gt;\\Stampie\\Adapter\\ResponseInterface</title>
<path fill="none" stroke="black" stroke-dasharray="1,5" d="M462.983,-494C436.678,-494 399.263,-494 366.045,-494"/>
<polygon fill="none" stroke="black" points="365.888,-490.5 355.888,-494 365.888,-497.5 365.888,-490.5"/>
</g>
<!-- \\Stampie\\Exception\\ApiException -->
<g id="node9" class="node"><title>\\Stampie\\Exception\\ApiException</title>
<a xlink:href="db_Stampie_Exception_ApiException.html" xlink:title="ApiException" target="_parent">
<polygon fill="none" stroke="black" points="547,-196 449,-196 449,-160 547,-160 547,-196"/>
<text text-anchor="middle" x="498" y="-174.6" font-family="Courier New" font-size="11.00">ApiException</text>
</a>
</g>
<!-- \\RuntimeException -->
<g id="node21" class="node"><title>\\RuntimeException</title>
<ellipse fill="none" stroke="black" cx="290" cy="-18" rx="83.7054" ry="18"/>
<text text-anchor="middle" x="290" y="-13.4" font-family="Times,serif" font-size="14.00" fill="gray">\RuntimeException</text>
</g>
<!-- \\Stampie\\Exception\\ApiException&#45;&gt;\\RuntimeException -->
<g id="edge6" class="edge"><title>\\Stampie\\Exception\\ApiException&#45;&gt;\\RuntimeException</title>
<path fill="none" stroke="black" d="M450.17,-159.983C445.814,-157.324 441.665,-154.337 438,-151 395.889,-112.666 419.215,-74.6188 374,-40 370.982,-37.6891 367.741,-35.6202 364.353,-33.7682"/>
<polygon fill="none" stroke="black" points="365.622,-30.4958 355.088,-29.3547 362.611,-36.8154 365.622,-30.4958"/>
</g>
<!-- \\Stampie\\Exception\\HttpException -->
<g id="node10" class="node"><title>\\Stampie\\Exception\\HttpException</title>
<a xlink:href="db_Stampie_Exception_HttpException.html" xlink:title="HttpException" target="_parent">
<polygon fill="none" stroke="black" points="550,-142 446,-142 446,-106 550,-106 550,-142"/>
<text text-anchor="middle" x="498" y="-120.6" font-family="Courier New" font-size="11.00">HttpException</text>
</a>
</g>
<!-- \\Stampie\\Exception\\HttpException&#45;&gt;\\RuntimeException -->
<g id="edge8" class="edge"><title>\\Stampie\\Exception\\HttpException&#45;&gt;\\RuntimeException</title>
<path fill="none" stroke="black" d="M445.822,-106.466C443.121,-105.064 440.496,-103.576 438,-102 404.514,-80.8555 408.48,-59.4822 374,-40 370.023,-37.753 365.809,-35.7287 361.472,-33.906"/>
<polygon fill="none" stroke="black" points="362.415,-30.5199 351.824,-30.2296 359.923,-37.0611 362.415,-30.5199"/>
</g>
<!-- \\Stampie\\Mailer\\MailChimpSts -->
<g id="node12" class="node"><title>\\Stampie\\Mailer\\MailChimpSts</title>
<a xlink:href="db_Stampie_Mailer_MailChimpSts.html" xlink:title="MailChimpSts" target="_parent">
<polygon fill="none" stroke="black" points="547,-431 449,-431 449,-395 547,-395 547,-431"/>
<text text-anchor="middle" x="498" y="-409.6" font-family="Courier New" font-size="11.00">MailChimpSts</text>
</a>
</g>
<!-- \\Stampie\\Mailer -->
<g id="node15" class="node"><title>\\Stampie\\Mailer</title>
<a xlink:href="db_Stampie_Mailer.html" xlink:title="«abstract»&lt;br/&gt;Mailer" target="_parent">
<polygon fill="none" stroke="black" points="332.5,-377 247.5,-377 247.5,-341 332.5,-341 332.5,-377"/>
<text text-anchor="start" x="256" y="-361.6" font-family="Courier New" font-size="11.00">«abstract»</text>
<text text-anchor="start" x="269" y="-350.6" font-family="Courier New" font-size="11.00">Mailer</text>
</a>
</g>
<!-- \\Stampie\\Mailer\\MailChimpSts&#45;&gt;\\Stampie\\Mailer -->
<g id="edge10" class="edge"><title>\\Stampie\\Mailer\\MailChimpSts&#45;&gt;\\Stampie\\Mailer</title>
<path fill="none" stroke="black" d="M448.962,-400.408C417.07,-392.047 375.236,-381.081 342.632,-372.535"/>
<polygon fill="none" stroke="black" points="343.391,-369.115 332.831,-369.965 341.616,-375.887 343.391,-369.115"/>
</g>
<!-- \\Stampie\\Mailer\\Postmark -->
<g id="node13" class="node"><title>\\Stampie\\Mailer\\Postmark</title>
<a xlink:href="db_Stampie_Mailer_Postmark.html" xlink:title="Postmark" target="_parent">
<polygon fill="none" stroke="black" points="533,-377 463,-377 463,-341 533,-341 533,-377"/>
<text text-anchor="middle" x="498" y="-355.6" font-family="Courier New" font-size="11.00">Postmark</text>
</a>
</g>
<!-- \\Stampie\\Mailer\\Postmark&#45;&gt;\\Stampie\\Mailer -->
<g id="edge12" class="edge"><title>\\Stampie\\Mailer\\Postmark&#45;&gt;\\Stampie\\Mailer</title>
<path fill="none" stroke="black" d="M462.983,-359C430.288,-359 380.431,-359 342.801,-359"/>
<polygon fill="none" stroke="black" points="342.536,-355.5 332.536,-359 342.536,-362.5 342.536,-355.5"/>
</g>
<!-- \\Stampie\\Mailer\\SendGrid -->
<g id="node14" class="node"><title>\\Stampie\\Mailer\\SendGrid</title>
<a xlink:href="db_Stampie_Mailer_SendGrid.html" xlink:title="SendGrid" target="_parent">
<polygon fill="none" stroke="black" points="533,-323 463,-323 463,-287 533,-287 533,-323"/>
<text text-anchor="middle" x="498" y="-301.6" font-family="Courier New" font-size="11.00">SendGrid</text>
</a>
</g>
<!-- \\Stampie\\Mailer\\SendGrid&#45;&gt;\\Stampie\\Mailer -->
<g id="edge14" class="edge"><title>\\Stampie\\Mailer\\SendGrid&#45;&gt;\\Stampie\\Mailer</title>
<path fill="none" stroke="black" d="M462.983,-313.917C430.149,-322.524 380.005,-335.669 342.319,-345.547"/>
<polygon fill="none" stroke="black" points="341.322,-342.191 332.536,-348.112 343.097,-348.962 341.322,-342.191"/>
</g>
<!-- \\Stampie\\MailerInterface -->
<g id="node16" class="node"><title>\\Stampie\\MailerInterface</title>
<a xlink:href="db_Stampie_MailerInterface.html" xlink:title="MailerInterface" target="_parent">
<polygon fill="none" stroke="black" points="134,-377 16,-377 16,-341 134,-341 134,-377"/>
<text text-anchor="middle" x="75" y="-355.6" font-family="Courier New" font-size="11.00">MailerInterface</text>
</a>
</g>
<!-- \\Stampie\\Mailer&#45;&gt;\\Stampie\\MailerInterface -->
<g id="edge22" class="edge"><title>\\Stampie\\Mailer&#45;&gt;\\Stampie\\MailerInterface</title>
<path fill="none" stroke="black" stroke-dasharray="1,5" d="M247.426,-359C218.241,-359 178.537,-359 144.689,-359"/>
<polygon fill="none" stroke="black" points="144.39,-355.5 134.39,-359 144.39,-362.5 144.39,-355.5"/>
</g>
<!-- \\Stampie\\Message -->
<g id="node17" class="node"><title>\\Stampie\\Message</title>
<a xlink:href="db_Stampie_Message.html" xlink:title="«abstract»&lt;br/&gt;Message" target="_parent">
<polygon fill="none" stroke="black" points="540.5,-269 455.5,-269 455.5,-233 540.5,-233 540.5,-269"/>
<text text-anchor="start" x="464" y="-253.6" font-family="Courier New" font-size="11.00">«abstract»</text>
<text text-anchor="start" x="473.5" y="-242.6" font-family="Courier New" font-size="11.00">Message</text>
</a>
</g>
<!-- \\Stampie\\MessageInterface -->
<g id="node18" class="node"><title>\\Stampie\\MessageInterface</title>
<a xlink:href="db_Stampie_MessageInterface.html" xlink:title="MessageInterface" target="_parent">
<polygon fill="none" stroke="black" points="352.5,-269 227.5,-269 227.5,-233 352.5,-233 352.5,-269"/>
<text text-anchor="middle" x="290" y="-247.6" font-family="Courier New" font-size="11.00">MessageInterface</text>
</a>
</g>
<!-- \\Stampie\\Message&#45;&gt;\\Stampie\\MessageInterface -->
<g id="edge24" class="edge"><title>\\Stampie\\Message&#45;&gt;\\Stampie\\MessageInterface</title>
<path fill="none" stroke="black" stroke-dasharray="1,5" d="M455.313,-251C428.801,-251 393.768,-251 362.863,-251"/>
<polygon fill="none" stroke="black" points="362.558,-247.5 352.558,-251 362.558,-254.5 362.558,-247.5"/>
</g>
<!-- \\Stampie\\Version -->
<g id="node19" class="node"><title>\\Stampie\\Version</title>
<a xlink:href="db_Stampie_Version.html" xlink:title="Version" target="_parent">
<polygon fill="none" stroke="black" points="530,-88 466,-88 466,-52 530,-52 530,-88"/>
<text text-anchor="middle" x="498" y="-66.6" font-family="Courier New" font-size="11.00">Version</text>
</a>
</g>
</g>
</svg>
